<svg width="290" height="290" viewBox="0 0 290 290" fill="none" xmlns="http://www.w3.org/2000/svg">
<circle cx="145" cy="145" r="141.5" fill="#D3E2B5" stroke="#372A1F" stroke-width="7"/>
<path d="M154.629 37H154.504C153.485 37.0247 152.572 37.4753 152.133 38.1677C148.705 42.5126 142.695 43.6116 136.948 45.5624C134.047 46.5473 131.111 47.8263 129.385 50.1852C127.94 52.162 127.576 54.6595 128.334 57.775C127.503 58.0113 126.654 58.2407 125.766 58.4633L125.764 58.4646C125.074 58.6322 124.501 59.0004 124.172 59.4867C123.842 59.9743 123.783 60.5403 124.009 61.0596C124.235 61.5789 124.726 62.0102 125.374 62.2548C126.023 62.5007 126.774 62.5419 127.461 62.3688C128.64 62.0789 129.768 61.7629 130.863 61.4443C134.564 63.8002 138.699 64.6615 142.464 64.0873C146.662 63.4472 150.119 61.2739 152.749 58.5196C157.957 53.063 160.435 45.0377 157.22 38.5331H157.222C156.912 37.6402 155.85 37.0138 154.627 37L154.629 37ZM186.419 57.4043C178.177 57.4043 171.546 62.41 171.546 68.6428H171.544C171.571 69.2005 171.296 69.7418 170.784 70.1443C170.27 70.5454 169.561 70.7721 168.821 70.7721C168.083 70.7721 167.374 70.5454 166.861 70.1443C166.349 69.7418 166.073 69.2005 166.101 68.6428C166.101 67.0451 166.429 65.5024 167.036 64.0502C165.352 64.0502 163.681 64.2384 162.061 64.5887C159.623 65.1149 157.305 66.0256 155.246 67.2868C153.239 68.5163 151.483 70.0837 150.107 71.9739C153.631 74.0922 156.322 77.0363 157.578 80.5516C158.181 82.2413 158.407 83.9461 158.302 85.6112C165.376 87.1937 171.238 91.4096 173.284 97.1409C174.516 100.59 174.185 104.094 172.623 107.21C180.971 108.676 189.248 109.821 197.319 110.29C208.181 110.924 218.617 110.358 228.481 107.764C226.903 105.232 223.902 102.178 221.369 101.074C217.785 99.5136 213.739 99.199 210.055 99.938L210.049 99.9394C209.346 100.095 208.586 100.03 207.946 99.7581C207.307 99.4861 206.838 99.0314 206.651 98.497C206.461 97.9613 206.567 97.3912 206.944 96.9158C207.321 96.4405 207.937 96.0998 208.651 95.9721C211.164 95.4707 213.811 95.3251 216.436 95.5737C219.062 95.821 221.665 96.4639 224.092 97.5203C225.457 98.1124 226.721 98.8707 227.877 99.7292C228.48 99.2278 229.007 98.6824 229.442 98.1C229.526 97.9228 229.641 97.7566 229.786 97.6041C230.605 96.3306 231.009 94.9088 230.9 93.4198C230.543 88.6022 224.928 84.9522 218.126 85.2929H218.124C217.402 85.33 216.69 85.1487 216.145 84.7901C215.6 84.4316 215.266 83.9247 215.219 83.3807C215.172 82.8353 215.412 82.2996 215.89 81.8902C216.367 81.4794 217.039 81.2294 217.763 81.1951C220.46 81.0618 223.06 81.3833 225.42 82.0742C223.458 75.3238 215.664 70.5706 206.53 70.7999C205.9 74.1669 203.821 77.1947 200.785 79.4873H200.787C200.282 79.8926 199.58 80.1275 198.844 80.1357C198.106 80.1454 197.396 79.9283 196.874 79.5354C196.353 79.1425 196.065 78.6082 196.076 78.0518C196.087 77.4968 196.397 76.9679 196.934 76.5874C199.63 74.5515 201.29 71.7574 201.29 68.6388C201.29 62.4046 194.664 57.4002 186.422 57.4002L186.419 57.4043ZM103.741 60.9787C97.4705 61.0694 91.2436 63.1657 86.7717 66.5106L86.7699 66.5119C86.6715 66.6012 86.564 66.6837 86.4473 66.7592C84.4611 68.3019 82.841 70.0974 81.7534 72.0769H81.7516C81.4873 72.5935 80.9589 73.0083 80.2828 73.2253C79.6086 73.4438 78.8451 73.4465 78.1671 73.235C77.4893 73.022 76.9535 72.6127 76.6801 72.0989C76.4086 71.5851 76.4232 71.0095 76.7221 70.5039C77.4729 69.1385 78.4095 67.8499 79.5028 66.6506C71.6833 66.4089 64.3578 69.6934 60.8264 75.0729C62.6322 75.0139 64.4272 75.2007 66.1548 75.551C66.8545 75.6911 67.4522 76.0359 67.8149 76.5085C68.1775 76.9811 68.2741 77.5443 68.0864 78.0704C67.8969 78.598 67.4377 79.0472 66.809 79.3178C66.1803 79.5898 65.435 79.6612 64.7352 79.517C61.4514 78.8507 57.858 79.1296 54.6671 80.5294C48.2854 83.3277 46.1059 89.4792 49.7945 94.3299C51.4783 96.5444 54.0732 98.0746 57.0127 98.8317C62.0384 97.0514 67.2119 95.8164 72.482 95.021C71.3303 89.1606 75.1716 83.0021 81.3913 78.5115C86.43 74.8738 93.2269 72.257 100.655 71.9176C103.016 71.8091 105.444 71.9176 107.896 72.3297V72.3283C109.066 72.397 110.048 73.0221 110.331 73.8807C110.615 74.7393 110.136 75.6377 109.144 76.1116C104.904 78.6105 104.824 80.1999 104.636 83.3815C104.476 86.1111 104.529 89.8105 102.258 94.491C117.396 95.8372 132.723 99.1067 147.62 102.232C154.158 103.604 160.735 104.993 167.284 106.234C168.671 103.783 169.019 100.99 168.026 98.2099C165.66 91.5872 156.647 87.6776 147.804 89.4564C147.104 89.5992 146.358 89.5264 145.73 89.2544C145.103 88.981 144.644 88.5318 144.458 88.0043C144.272 87.4754 144.37 86.9136 144.735 86.4424C145.099 85.9698 145.699 85.6264 146.4 85.489C148.567 85.0535 150.747 84.8804 152.881 84.9395C152.901 83.846 152.717 82.7333 152.319 81.6206C149.954 74.9978 140.941 71.0882 132.097 72.867C131.689 72.9522 131.292 73.0428 130.9 73.1459V73.1431C130.647 73.2516 130.373 73.3299 130.087 73.3725C126.616 74.4399 123.853 76.3164 122.073 78.6311C121.714 79.1078 121.118 79.4568 120.416 79.601C119.715 79.7439 118.966 79.6697 118.337 79.3949C117.708 79.1202 117.251 78.6669 117.069 78.1366C116.885 77.6063 116.99 77.0417 117.36 76.5706C119.343 73.9934 122.262 71.8173 125.858 70.3462C121.814 64.9761 113.849 61.2934 105.645 61.0061H105.596C104.978 60.947 104.36 60.947 103.744 60.947L103.741 60.9787ZM188.868 68.9368L188.867 68.9382C190.293 68.9024 191.516 69.7033 191.666 70.7749C191.815 71.845 190.844 72.8217 189.437 73.0113C181.92 74.1048 177.193 79.5708 178.838 85.3748C179.002 85.912 178.875 86.4766 178.483 86.9409C178.091 87.4052 177.468 87.7322 176.754 87.8475C176.039 87.9629 175.292 87.8572 174.684 87.5536C174.073 87.25 173.65 86.7747 173.51 86.2334C171.261 78.2975 177.947 70.5029 188.407 68.9795H188.409C188.559 68.9506 188.712 68.93 188.867 68.9204L188.868 68.9368ZM96.2581 76.6916C92.0759 77.5461 88.251 79.2413 85.1585 81.4737C79.9743 85.2159 77.144 90.2231 77.875 94.3581C80.0071 94.152 82.1519 94.0133 84.3076 93.935C84.5063 93.9295 84.7067 93.935 84.9053 93.935C85.2971 87.7437 89.2715 81.129 96.2581 76.707L96.2581 76.6916ZM99.8115 79.8869C94.1645 83.5313 90.822 88.9795 90.3704 93.866C92.4514 93.866 94.5398 93.9622 96.6318 94.0776C99.1502 89.5592 99.0099 86.3766 99.1976 83.1988C99.2577 82.1136 99.4436 81.0009 99.8135 79.8867L99.8115 79.8869ZM132.594 82.1467H132.59C133.423 82.1385 134.214 82.416 134.741 82.9009C135.267 83.3858 135.472 84.0273 135.293 84.64C133.718 90.4771 125.795 94.105 117.834 92.8879C117.119 92.7848 116.487 92.4703 116.081 92.0155C115.676 91.5595 115.528 91.0004 115.672 90.4618C115.818 89.9234 116.241 89.4521 116.851 89.1513C117.46 88.8504 118.203 88.746 118.916 88.8628C124.166 89.665 129.002 87.3435 129.953 83.8212C130.192 82.8609 131.296 82.1617 132.59 82.1466L132.594 82.1467ZM198.623 91.0195H198.619C199.45 91.0099 200.241 91.2874 200.768 91.7723C201.295 92.2572 201.499 92.896 201.322 93.5087C199.755 99.3472 191.837 102.975 183.879 101.752C183.15 101.66 182.505 101.348 182.088 100.89C181.67 100.431 181.517 99.8648 181.665 99.3195C181.811 98.7741 182.246 98.2974 182.867 97.998C183.489 97.6985 184.245 97.6023 184.963 97.7314C190.209 98.5378 195.039 96.219 195.984 92.694V92.6927C196.225 91.7338 197.325 91.0346 198.619 91.0195L198.623 91.0195ZM88.3369 97.9623H88.3333C87.885 98.0502 87.413 98.0502 86.9647 97.9623C74.6187 98.1381 62.9015 100.255 52.0479 105.602C50.8269 107.763 50.2311 111.797 51.1185 115.802C51.9531 119.571 53.9977 123.296 57.2157 125.827C67.1634 121.172 77.8585 119.133 88.8139 118.732C92.688 118.593 96.597 118.654 100.515 118.878C116.192 119.773 132.16 123.19 147.613 126.433C163.086 129.68 178.776 133.036 193.686 133.906C208.492 134.769 222.416 133.232 235.057 126.845C236.719 125.444 238.252 123.265 239.442 120.762C237.625 121.493 235.762 122.162 233.858 122.758V122.757C232.469 123.19 230.877 122.692 230.301 121.647C229.725 120.6 230.381 119.399 231.768 118.964C235.117 117.916 238.335 116.627 241.379 115.131C241.975 112.446 242.137 109.759 241.887 107.562C239.075 108.812 236.211 109.874 233.301 110.76H233.299C233.107 110.839 232.902 110.9 232.69 110.942C221.248 114.328 209.128 115.085 196.893 114.373C187.545 113.829 178.097 112.442 168.696 110.722V110.72C168.251 110.722 167.812 110.641 167.418 110.486C160.277 109.156 153.164 107.646 146.152 106.173C129.48 102.674 112.571 99.0902 96.4742 98.1713C93.7317 98.0146 91.0166 97.9418 88.3305 97.9473L88.3369 97.9623ZM232.93 101.564C232.585 101.909 232.223 102.24 231.836 102.557L231.833 102.556C231.674 102.695 231.492 102.817 231.291 102.92C232.214 103.992 232.992 105.111 233.604 106.217C235.37 105.608 237.114 104.928 238.838 104.169C236.964 103.298 234.938 102.426 232.926 101.566L232.93 101.564ZM184.563 121.259L184.561 121.258C184.741 121.265 184.922 121.284 185.098 121.319C196.985 122.834 209.133 123.39 220.724 121.566H220.726C221.436 121.446 222.18 121.548 222.792 121.845C223.404 122.143 223.833 122.613 223.982 123.15C224.132 123.688 223.988 124.247 223.585 124.705C223.182 125.164 222.553 125.48 221.839 125.585C209.287 127.562 196.464 126.932 184.195 125.368C182.804 125.201 181.811 124.262 181.906 123.202C182.001 122.141 183.152 121.312 184.561 121.287L184.563 121.259ZM93.8696 122.773C93.1826 122.768 92.4975 122.768 91.816 122.773C87.1837 122.832 82.6515 123.154 78.2253 123.861C79.264 127.061 80.1351 130.256 80.8986 133.655C86.8755 159.673 79.9966 186.821 63.5232 209.923L63.5214 209.92C63.5105 209.941 63.5013 209.96 63.4904 209.981H63.4831C59.7001 214.923 62.1 221.347 69.0354 224.366C75.3734 227.126 83.0781 225.99 87.2473 222.005C85.8787 221.431 84.5157 220.838 83.1617 220.224V220.226C82.5349 219.948 82.0793 219.492 81.9007 218.962C81.7203 218.43 81.8315 217.867 82.2051 217.396C82.5804 216.926 83.1891 216.589 83.8961 216.459C84.6013 216.33 85.3485 216.418 85.9681 216.706C92.3442 219.595 98.8426 222.035 105.446 224.004C112.052 225.972 118.762 227.471 125.566 228.478C132.371 229.485 139.272 230 146.255 230C153.238 230 160.133 229.486 166.94 228.478C173.744 227.471 180.456 225.974 187.061 224.004C193.665 222.035 200.165 219.595 206.542 216.706H206.54C206.983 216.499 207.495 216.392 208.016 216.397C209.239 216.411 210.301 217.037 210.613 217.93C210.922 218.822 210.405 219.761 209.348 220.226C208.034 220.818 206.713 221.392 205.388 221.951C209.545 225.98 217.288 227.137 223.653 224.366C230.588 221.347 232.993 214.923 229.209 209.981C229.196 209.961 229.183 209.941 229.17 209.921C229.148 209.893 229.13 209.865 229.11 209.836C213.564 187.972 206.551 162.501 210.962 137.774C205.142 138.331 199.219 138.361 193.272 138.011C177.587 137.097 161.61 133.642 146.159 130.399C130.69 127.151 115.015 123.829 100.107 122.977C98.011 122.857 95.9318 122.784 93.8708 122.771L93.8696 122.773ZM154.613 137.952H154.615C154.852 137.946 155.089 137.946 155.322 137.956C157.201 138.015 158.994 138.428 160.517 139.192L160.516 139.191C161.259 139.567 161.711 140.194 161.722 140.869C161.733 141.544 161.305 142.18 160.574 142.57C159.103 143.357 158.737 144.757 157.117 146.699C156.306 147.671 155.003 148.72 153.128 149.297C152.202 149.582 151.184 149.756 150.047 149.836C150.067 149.939 150.087 150.042 150.096 150.143C152.031 149.587 154.136 149.277 156.331 149.277C162.261 149.277 167.513 151.514 171.739 154.395C175.965 157.276 179.263 160.853 181.377 164.045C181.563 164.323 181.741 164.613 181.918 164.906H181.92C182.601 165.561 182.691 166.462 182.146 167.186C181.584 167.972 180.413 168.395 179.25 168.232C167.943 168.408 158.897 175.348 158.897 183.95C158.897 192.66 168.249 199.966 179.705 199.966H179.704H179.773H179.813C180.702 199.972 181.531 200.303 182.036 200.855C182.541 201.407 182.656 202.109 182.346 202.737C182.087 207.1 178.526 210.918 173.967 213.7C169.233 216.589 163.306 218.482 157.654 218.558H157.605C152.196 218.558 148.9 217.334 146.286 215.684C143.349 217.426 139.679 218.558 135.043 218.558H135.003C129.306 218.48 123.364 216.59 118.629 213.7C114.043 210.9 110.484 207.045 110.267 202.652C109.82 201.618 110.522 200.501 111.867 200.105C112.206 199.997 112.572 199.942 112.94 199.943C113.042 199.938 113.146 199.938 113.25 199.943C124.568 199.815 133.761 192.566 133.761 183.932C133.761 175.301 124.65 168.342 113.29 168.213H113.288C112.834 168.255 112.373 168.211 111.949 168.085C111.098 167.851 110.458 167.316 110.238 166.653C110.019 165.993 110.248 165.292 110.852 164.785C113.13 161.509 116.196 157.853 120.226 154.865C124.431 151.747 129.82 149.321 136.249 149.26H136.289C139.349 149.26 142.233 149.859 144.724 150.902C144.704 150.484 144.622 150.063 144.458 149.648C143.977 148.413 142.871 147.284 141.275 146.58C139.677 145.877 137.916 145.73 136.333 146.031C134.882 146.296 133.419 145.63 133.053 144.538C132.686 143.445 133.554 142.335 134.999 142.048C136.469 141.769 138.015 141.704 139.549 141.867C141.083 142.024 142.603 142.411 144.021 143.037C144.159 143.096 144.294 143.165 144.427 143.226C145.451 141.164 147.39 139.639 149.63 138.846C151.257 138.272 152.965 137.967 154.623 137.938L154.613 137.952ZM153.946 142.324C153.254 142.383 152.539 142.383 151.936 142.579C150.562 143.062 149.742 144.051 149.432 145.568C149.899 145.509 150.808 145.568 151.078 145.5C151.778 145.289 152.075 145.053 152.517 144.52C152.924 144.029 153.341 143.205 153.948 142.328L153.946 142.324ZM156.341 153.38C153.128 153.38 150.262 154.319 148.195 155.811L148.191 155.809H148.153H148.133C148.117 155.83 148.1 155.849 148.084 155.868V155.874C148.064 155.894 148.044 155.914 148.024 155.933C147.985 155.959 147.943 155.984 147.903 156.007H147.883H147.843C147.79 156.036 147.734 156.062 147.679 156.087V156.091C147.672 156.092 147.665 156.095 147.659 156.096C147.63 156.116 147.601 156.136 147.57 156.155C147.528 156.176 147.484 156.195 147.441 156.214H147.4H147.322C147.277 156.235 147.229 156.256 147.182 156.275H147.142H147.072C147.02 156.295 146.967 156.315 146.912 156.334C146.905 156.335 146.898 156.337 146.892 156.338H146.803C146.754 156.339 146.703 156.339 146.653 156.338C146.641 156.339 146.628 156.341 146.615 156.342C146.584 156.345 146.555 156.346 146.526 156.348C146.478 156.349 146.433 156.349 146.385 156.348H146.347H146.258C146.209 156.348 146.158 156.346 146.108 156.344H146.088H145.99H145.853H145.793C145.788 156.342 145.78 156.341 145.773 156.339H145.695H145.585C145.54 156.32 145.496 156.3 145.452 156.279C145.407 156.26 145.363 156.241 145.319 156.22H145.279H145.25H145.201C145.157 156.201 145.115 156.181 145.075 156.161H145.035C145.008 156.14 144.982 156.121 144.957 156.1H144.928C144.897 156.081 144.867 156.062 144.838 156.041H144.798C144.775 156.022 144.753 156.002 144.729 155.982C144.724 155.98 144.716 155.978 144.709 155.975C144.674 155.956 144.64 155.937 144.607 155.916H144.587C144.56 155.897 144.534 155.876 144.508 155.856C144.478 155.837 144.448 155.817 144.419 155.797C142.356 154.308 139.497 153.374 136.294 153.369C131.64 153.429 127.601 155.148 124.039 157.791C122.787 158.719 121.619 159.757 120.527 160.845C121.679 160.675 122.867 160.579 124.082 160.579C128.248 160.579 132.113 161.641 135.206 163.424C138.298 161.642 142.161 160.579 146.327 160.579C150.493 160.579 154.354 161.641 157.447 163.424C160.539 161.642 164.4 160.579 168.566 160.579C169.838 160.579 171.083 160.675 172.286 160.869C171.021 159.645 169.614 158.463 168.092 157.425C164.501 154.975 160.415 153.365 156.335 153.365L156.341 153.38ZM124.088 164.704C122.949 164.704 121.848 164.813 120.799 165.025C131.45 167.552 139.202 175.087 139.202 183.951C139.202 192.835 131.439 200.574 120.735 203.156C121.797 203.368 122.912 203.488 124.068 203.488C127.53 203.488 130.648 202.461 132.98 200.775L132.978 200.774C133.496 200.251 134.312 199.943 135.178 199.946C135.861 199.951 136.517 200.15 137.017 200.503C137.037 200.523 137.057 200.542 137.075 200.562C137.097 200.582 137.115 200.602 137.135 200.621C139.495 202.425 142.722 203.531 146.32 203.531C149.782 203.531 152.896 202.503 155.229 200.816V200.818C155.746 200.294 156.563 199.988 157.43 199.991C158.11 199.995 158.764 200.191 159.263 200.542C159.285 200.561 159.309 200.58 159.331 200.601C159.349 200.62 159.365 200.641 159.382 200.66C161.742 202.464 164.964 203.569 168.561 203.569C169.723 203.569 170.846 203.455 171.914 203.237C161.219 200.65 153.467 192.915 153.467 184.036C153.467 175.171 161.222 167.636 171.874 165.11C170.824 164.904 169.722 164.789 168.583 164.789C164.985 164.789 161.764 165.891 159.404 167.696L159.402 167.697C159.364 167.726 159.322 167.753 159.282 167.781C159.243 167.807 159.205 167.832 159.167 167.855C159.132 167.876 159.098 167.896 159.061 167.915C159.027 167.936 158.992 167.955 158.955 167.975C158.917 167.995 158.877 168.016 158.837 168.035C158.795 168.056 158.751 168.075 158.708 168.094C158.671 168.115 158.635 168.134 158.598 168.153C158.556 168.174 158.513 168.194 158.469 168.214C158.425 168.234 158.378 168.253 158.332 168.273H158.219C158.17 168.274 158.121 168.274 158.072 168.273H157.946H157.817C157.767 168.274 157.718 168.274 157.669 168.273C157.625 168.275 157.581 168.277 157.538 168.278C157.494 168.28 157.45 168.28 157.405 168.278C157.357 168.278 157.31 168.277 157.264 168.274C157.221 168.275 157.177 168.275 157.135 168.274C157.088 168.275 157.042 168.275 156.996 168.274C156.951 168.275 156.905 168.275 156.862 168.274C156.818 168.275 156.774 168.275 156.732 168.274C156.69 168.275 156.647 168.275 156.605 168.274C156.559 168.255 156.514 168.236 156.468 168.215C156.43 168.196 156.391 168.175 156.353 168.155C156.309 168.137 156.266 168.116 156.224 168.095C156.182 168.076 156.142 168.057 156.102 168.036C156.065 168.017 156.029 167.997 155.992 167.976C155.952 167.958 155.914 167.937 155.874 167.917C155.838 167.898 155.803 167.878 155.768 167.858C155.732 167.836 155.695 167.814 155.661 167.79C155.632 167.768 155.601 167.747 155.573 167.723C155.555 167.704 155.539 167.683 155.522 167.664C153.162 165.86 149.941 164.757 146.343 164.757C142.963 164.757 139.909 165.733 137.595 167.347C137.09 167.962 136.195 168.332 135.236 168.321C134.265 168.34 133.356 167.969 132.846 167.347C130.531 165.733 127.479 164.757 124.099 164.757L124.088 164.704ZM139.308 171.824L139.304 171.823C140.33 171.819 141.27 172.249 141.74 172.935C142.256 173.662 142.726 174.411 143.147 175.179H143.149C143.433 175.683 143.439 176.253 143.164 176.76C142.888 177.268 142.356 177.672 141.684 177.882C141.011 178.091 140.255 178.09 139.585 177.877C138.914 177.664 138.384 177.257 138.114 176.748C137.762 176.105 137.369 175.478 136.937 174.868C136.472 174.235 136.485 173.463 136.97 172.838C137.456 172.213 138.344 171.827 139.304 171.823L139.308 171.824ZM153.244 171.824L153.241 171.823C154.216 171.805 155.129 172.183 155.635 172.812C156.14 173.441 156.16 174.225 155.69 174.868C155.258 175.478 154.864 176.105 154.513 176.748H154.511C154.254 177.271 153.726 177.693 153.048 177.915C152.37 178.139 151.599 178.145 150.916 177.932C150.232 177.719 149.693 177.304 149.421 176.785C149.152 176.265 149.173 175.686 149.481 175.179C149.902 174.411 150.369 173.664 150.885 172.935C151.34 172.268 152.244 171.841 153.241 171.823L153.244 171.824ZM142.821 180.635L142.817 180.634C144.246 180.628 145.438 181.455 145.549 182.528C145.653 183.388 145.7 184.258 145.685 185.138C145.68 185.685 145.385 186.209 144.867 186.59C144.348 186.974 143.648 187.184 142.923 187.176C142.196 187.169 141.505 186.942 141 186.548C140.497 186.155 140.222 185.626 140.239 185.079C140.259 184.339 140.219 183.611 140.126 182.891V182.89C140.046 182.314 140.292 181.738 140.805 181.306C141.319 180.874 142.05 180.626 142.819 180.623L142.821 180.635ZM149.729 180.635L149.726 180.634C150.509 180.619 151.265 180.859 151.798 181.293C152.33 181.727 152.587 182.314 152.505 182.902C152.415 183.622 152.379 184.351 152.388 185.09C152.401 185.636 152.124 186.163 151.621 186.555C151.116 186.948 150.427 187.173 149.702 187.18C148.979 187.188 148.281 186.978 147.761 186.597C147.244 186.217 146.947 185.696 146.939 185.149C146.919 184.269 146.969 183.399 147.076 182.539V182.541C147.184 181.49 148.328 180.671 149.726 180.645L149.729 180.635ZM141.451 190.032L141.447 190.03C142.327 190.029 143.153 190.349 143.665 190.888C144.177 191.427 144.314 192.12 144.029 192.748C143.683 193.551 143.288 194.338 142.843 195.105C142.559 195.61 142.019 196.009 141.343 196.212C140.667 196.415 139.911 196.406 139.244 196.187C138.577 195.968 138.054 195.556 137.792 195.045C137.529 194.532 137.551 193.963 137.848 193.462C138.222 192.816 138.559 192.154 138.848 191.48H138.85C139.2 190.62 140.253 190.033 141.447 190.03L141.451 190.032ZM151.102 190.032L151.098 190.03C152.323 190.004 153.42 190.598 153.779 191.48C154.068 192.154 154.402 192.816 154.777 193.462C155.091 193.965 155.12 194.54 154.861 195.058C154.602 195.578 154.076 195.995 153.401 196.218C152.727 196.439 151.964 196.446 151.282 196.237C150.602 196.027 150.063 195.619 149.786 195.105C149.341 194.337 148.941 193.551 148.596 192.748C148.317 192.129 148.443 191.448 148.937 190.912C149.431 190.377 150.232 190.048 151.098 190.03L151.102 190.032ZM135.192 204.746C132.099 206.529 128.236 207.591 124.07 207.591C121.769 207.591 119.562 207.264 117.525 206.675C118.627 208.05 120.18 209.362 122.057 210.507C125.909 212.859 130.988 214.385 135.068 214.447C139.498 214.443 141.834 213.435 144.385 211.467H144.38C144.422 211.434 144.467 211.401 144.513 211.371C144.549 211.348 144.586 211.326 144.622 211.304C144.657 211.283 144.692 211.263 144.728 211.243C144.763 211.224 144.797 211.204 144.834 211.184C144.876 211.164 144.918 211.145 144.959 211.125C144.996 211.105 145.034 211.084 145.072 211.065C145.112 211.044 145.151 211.025 145.191 211.006C145.236 210.985 145.28 210.965 145.328 210.947C145.368 210.926 145.41 210.905 145.453 210.886H145.572H145.718H145.841H145.984H146.109H146.248H146.394C146.432 210.888 146.472 210.889 146.512 210.892C146.561 210.89 146.61 210.89 146.661 210.892C146.703 210.89 146.747 210.89 146.791 210.892C146.836 210.89 146.884 210.89 146.931 210.892C146.969 210.89 147.008 210.89 147.044 210.892C147.097 210.91 147.148 210.93 147.197 210.951H147.307C147.354 210.97 147.401 210.989 147.447 211.011C147.489 211.029 147.529 211.05 147.569 211.07C147.607 211.09 147.644 211.109 147.68 211.129C147.722 211.149 147.764 211.169 147.806 211.19C147.84 211.209 147.873 211.228 147.908 211.249C147.948 211.271 147.988 211.293 148.026 211.316C148.061 211.335 148.094 211.355 148.127 211.375C148.161 211.397 148.194 211.419 148.225 211.443C148.245 211.462 148.265 211.482 148.285 211.502C151.095 213.668 151.877 214.48 157.601 214.481C161.621 214.422 166.699 212.893 170.557 210.542C172.434 209.396 173.99 208.084 175.096 206.711C173.061 207.298 170.856 207.625 168.558 207.625C164.392 207.625 160.531 206.563 157.438 204.78C154.346 206.562 150.484 207.625 146.319 207.625C142.153 207.625 138.29 206.562 135.197 204.779L135.192 204.746Z" fill="#006830" stroke="#372A1F" stroke-width="2"/>
</svg>
